<svg version="1.2" xmlns="http://www.w3.org/2000/svg" viewBox="0 0 24 24" width="24" height="24">
	<title>envelope-svg</title>
	<style>
		.s0 { fill: #00a4f6 } 
	</style>
	<g id="Layer 1">
		<path class="s0" d="m24 5.5l-8.5 8.5q-0.7 0.7-1.6 1-0.9 0.4-1.9 0.4-1 0-1.9-0.4-0.9-0.3-1.6-1l-8.5-8.5q0 0.3 0 0.5v12q0 1 0.4 1.9 0.4 0.9 1.1 1.6 0.7 0.7 1.6 1.1 0.9 0.4 1.9 0.4h14q1 0 1.9-0.4 0.9-0.4 1.6-1.1 0.7-0.7 1.1-1.6 0.4-0.9 0.4-1.9v-12q0-0.2 0-0.5z"/>
		<path class="s0" d="m14.1 12.5l9.2-9.1q-0.4-0.5-0.8-1-0.5-0.4-1.1-0.8-0.5-0.3-1.1-0.4-0.7-0.2-1.3-0.2h-14q-0.6 0-1.3 0.2-0.6 0.1-1.1 0.4-0.6 0.4-1.1 0.8-0.4 0.5-0.8 1l9.2 9.1q0.4 0.5 1 0.7 0.5 0.2 1.1 0.2 0.6 0 1.1-0.2 0.6-0.2 1-0.7z"/>
	</g>
</svg>