<svg version="1.2" xmlns="http://www.w3.org/2000/svg" viewBox="0 0 24 24" width="24" height="24">
	<title>telegram-svg</title>
	<style>
		.s0 { fill: #0088cc } 
	</style>
	<g id="Artboard">
		<path fill-rule="evenodd" class="s0" d="m12 0c-6.6 0-12 5.4-12 12 0 6.6 5.4 12 12 12 6.6 0 12-5.4 12-12 0-6.6-5.4-12-12-12zm5.6 8.2c-0.2 1.9-1 6.5-1.4 8.6-0.2 0.9-0.5 1.2-0.8 1.2-0.7 0.1-1.2-0.4-1.9-0.9-1.1-0.7-1.7-1.1-2.7-1.8-1.2-0.8-0.4-1.2 0.3-1.9 0.1-0.2 3.2-3 3.3-3.2 0-0.1 0-0.2-0.1-0.2-0.1-0.1-0.2-0.1-0.2-0.1q-0.2 0.1-5.1 3.4-0.7 0.5-1.3 0.5c-0.4 0-1.3-0.3-1.9-0.5-0.7-0.2-1.3-0.4-1.3-0.8q0.1-0.3 0.9-0.6 5.3-2.3 7-3c3.4-1.4 4.1-1.7 4.5-1.7 0.6 0 0.7 0.5 0.7 1z"/>
	</g>
</svg>