<svg version="1.2" xmlns="http://www.w3.org/2000/svg" viewBox="0 0 24 24" width="24" height="24">
	<title>vk-svg</title>
	<style>
		.s0 { fill: #0088cc } 
	</style>
	<g>
		<path class="s0" d="m22.3 1.7c-1.7-1.7-4.4-1.7-9.8-1.7h-1c-5.4 0-8.1 0-9.8 1.7-1.7 1.7-1.7 4.4-1.7 9.8v1c0 5.4 0 8.1 1.7 9.8 1.7 1.7 4.4 1.7 9.8 1.7h1c5.4 0 8.1 0 9.8-1.7 1.7-1.7 1.7-4.4 1.7-9.8v-1c0-5.4 0-8.1-1.7-9.8zm-2.8 15.3h-1.7c-0.7 0-0.9-0.5-2.1-1.7-1-1-1.5-1.1-1.7-1.1-0.4 0-0.5 0.1-0.5 0.6v1.5c0 0.4-0.1 0.7-1.2 0.7-1.9 0-3.9-1.1-5.4-3.2-2.2-3-2.8-5.3-2.8-5.8 0-0.3 0.1-0.5 0.6-0.5h1.8c0.4 0 0.6 0.2 0.8 0.7 0.8 2.5 2.3 4.7 2.9 4.7 0.2 0 0.3-0.2 0.3-0.7v-2.6c-0.1-1.2-0.7-1.3-0.7-1.7 0-0.2 0.2-0.4 0.4-0.4h2.8c0.4 0 0.5 0.2 0.5 0.6v3.5c0 0.4 0.2 0.5 0.3 0.5 0.2 0 0.4-0.1 0.8-0.5 1.2-1.4 2.1-3.6 2.1-3.6 0.2-0.3 0.4-0.5 0.8-0.5h1.8c0.5 0 0.6 0.3 0.5 0.6-0.2 1.1-2.4 4.1-2.4 4.1-0.2 0.3-0.2 0.4 0 0.7 0.2 0.3 0.8 0.8 1.2 1.3 0.8 0.9 1.3 1.6 1.5 2.1 0.2 0.5-0.1 0.7-0.6 0.7z"/>
	</g>
</svg>